HIERARCHY
ROOT Hips
{
	OFFSET 151.697800 93.143646 -72.043053
	CHANNELS 6 Xposition Yposition Zposition Zrotation Yrotation Xrotation 
	JOINT RightUpLeg
	{
		OFFSET 0.103458 1.857831 10.548505
		CHANNELS 3 Xrotation Yrotation Zrotation
		JOINT RightLeg
		{
			OFFSET 43.500000 -0.000031 0.000002
			CHANNELS 3 Xrotation Yrotation Zrotation
			JOINT RightFoot
			{
				OFFSET 42.372200 0.000023 0.000003
				CHANNELS 3 Xrotation Yrotation Zrotation
				JOINT RightToe
				{
					OFFSET 17.299997 -0.000001 -0.000010
					CHANNELS 3 Xrotation Yrotation Zrotation
					End Site
					{
						OFFSET 0.000000 0.000000 0.000000
					}
				}
			}
		}
	}
	JOINT LeftUpLeg
	{
		OFFSET 0.103457 1.857828 -10.548510
		CHANNELS 3 Xrotation Yrotation Zrotation
		JOINT LeftLeg
		{
			OFFSET 43.500046 -0.000015 0.000002
			CHANNELS 3 Xrotation Yrotation Zrotation
			JOINT LeftFoot
			{
				OFFSET 42.372261 -0.000008 0.000023
				CHANNELS 3 Xrotation Yrotation Zrotation
				JOINT LeftToe
				{
					OFFSET 17.299990 -0.000007 -0.000002
					CHANNELS 3 Xrotation Yrotation Zrotation
					End Site
					{
						OFFSET 0.000000 0.000000 0.000000
					}
				}
			}
		}
	}
	JOINT Spine
	{
		OFFSET 6.901967 -2.603726 -0.000001
		CHANNELS 3 Xrotation Yrotation Zrotation
		JOINT Spine1
		{
			OFFSET 12.588100 -0.000009 -0.000003
			CHANNELS 3 Xrotation Yrotation Zrotation
			JOINT Spine2
			{
				OFFSET 12.343202 0.000008 0.000008
				CHANNELS 3 Xrotation Yrotation Zrotation
				JOINT Neck
				{
					OFFSET 25.832897 -0.000015 -0.000004
					CHANNELS 3 Xrotation Yrotation Zrotation
					JOINT Head
					{
						OFFSET 11.766609 0.000013 -0.000006
						CHANNELS 3 Xrotation Yrotation Zrotation
						End Site
						{
							OFFSET 0.000000 0.000000 0.000000
						}
					}
				}
				JOINT RightShoulder
				{
					OFFSET 19.745911 -1.480373 6.000098
					CHANNELS 3 Xrotation Yrotation Zrotation
					JOINT RightArm
					{
						OFFSET 11.284123 -0.000007 -0.000032
						CHANNELS 3 Xrotation Yrotation Zrotation
						JOINT RightForeArm
						{
							OFFSET 33.000050 0.000005 0.000031
							CHANNELS 3 Xrotation Yrotation Zrotation
							JOINT RightHand
							{
								OFFSET 25.200008 0.000017 0.000013
								CHANNELS 3 Xrotation Yrotation Zrotation
								End Site
								{
									OFFSET 0.000000 0.000000 0.000000
								}
							}
						}
					}
				}
				JOINT LeftShoulder
				{
					OFFSET 19.746092 -1.480379 -6.000077
					CHANNELS 3 Xrotation Yrotation Zrotation
					JOINT LeftArm
					{
						OFFSET 11.284136 -0.000017 -0.000017
						CHANNELS 3 Xrotation Yrotation Zrotation
						JOINT LeftForeArm
						{
							OFFSET 33.000099 0.000019 0.000015
							CHANNELS 3 Xrotation Yrotation Zrotation
							JOINT LeftHand
							{
								OFFSET 25.199780 0.000140 0.000408
								CHANNELS 3 Xrotation Yrotation Zrotation
								End Site
								{
									OFFSET 0.000000 0.000000 0.000000
								}
							}
						}
					}
				}
			}
		}
	}
}
MOTION
Frames: 14
Frame Time: 0.033333
-167.986298 89.666656 -79.433853 97.820234 -1.771213 -148.611693 171.850237 -9.236606 -151.388916 -25.218564 -5.034196 -2.095194 80.987363 -0.600470 -9.475508 21.454558 0.003108 0.000017 176.513180 -7.609212 161.941927 -25.496065 4.660562 -3.021587 78.218944 0.040693 -7.252549 21.454550 -0.003084 0.000001 6.918315 0.980879 -0.448311 3.816883 1.975881 -0.864550 3.498627 1.970484 -0.876476 18.733887 -4.052044 -14.436440 -23.809688 2.290235 -16.509609 -163.564097 -69.788373 -18.305260 12.837230 58.008715 56.172657 -28.537770 -14.051409 1.167442 6.826372 7.560615 13.245301 -173.515902 73.128793 8.098391 -51.634874 -49.602220 -17.106540 -54.646571 16.401487 -2.000098 -15.864859 18.942309 -43.217916 
-168.057999 89.552048 -80.977409 97.819517 -1.831762 -152.992098 173.247338 -10.857102 -160.278503 -25.112294 -6.716773 0.917176 81.885417 -2.164060 -7.299008 21.454562 0.003106 0.000017 175.659133 -6.698503 162.921704 -28.262414 3.625479 -6.181550 79.156538 2.301167 -7.336173 21.454555 -0.003106 -0.000002 7.010533 0.708023 -0.475888 4.002729 1.431937 -0.927350 3.684568 1.426176 -0.935985 18.758928 -4.091968 -14.541683 -23.666892 3.332690 -17.060102 -164.968589 -69.656571 -16.856789 9.426137 56.957296 54.914400 -28.721618 -14.251043 1.183627 5.732144 9.185588 13.273547 -172.922331 72.223213 8.702178 -50.487495 -48.766864 -19.116586 -55.394043 16.649588 -2.043085 -18.782026 19.612922 -45.255898 
-168.353897 89.618851 -82.549103 97.211671 -2.893767 -157.768600 175.623015 -9.659803 -171.693388 -24.101164 -4.843192 4.010148 81.597005 -4.068207 -5.815449 21.454557 0.003107 0.000017 173.061926 -4.895997 164.485230 -33.202776 2.388515 -9.157576 78.159931 4.288811 -7.612098 21.454550 -0.003099 -0.000000 7.087016 0.177896 -0.490199 4.159627 0.373161 -0.973758 3.841559 0.367136 -0.975995 18.738489 -4.277158 -14.741751 -23.572248 3.673747 -17.414576 -165.801490 -69.734715 -15.996658 5.717013 56.134951 51.715406 -28.276298 -14.383629 1.183963 6.224970 8.719025 14.419696 -173.092430 71.985502 8.525798 -49.744930 -48.699877 -20.282382 -54.147308 16.771097 -2.007637 -20.232581 20.326978 -47.121079 
-168.622101 89.639137 -84.077843 96.698608 -3.464670 -162.365290 177.417825 -8.254197 -174.990061 -22.860278 -5.366539 2.761158 81.653621 -3.016334 -5.255435 21.454562 0.003109 0.000017 169.134800 -3.139998 166.306760 -39.080471 2.414827 -10.942093 75.743711 6.022421 -5.638803 21.454558 -0.003100 -0.000002 7.075228 -0.207482 -0.536204 4.139520 -0.395804 -1.079408 3.821474 -0.402451 -1.077003 18.537110 -4.916153 -15.237520 -22.744793 3.857035 -17.975308 -166.591305 -69.825611 -15.181117 2.612580 55.018116 48.168461 -27.570055 -14.378928 1.171012 7.146306 6.619159 14.622846 -173.466847 72.377404 8.143500 -48.937544 -49.294346 -20.902949 -51.485583 16.721775 -1.913849 -18.332901 20.822429 -45.170032 
-168.742798 89.789970 -85.348419 96.465945 -3.159395 -166.375594 178.958647 -7.746004 -176.268358 -21.367982 -6.190616 0.961071 81.616690 -1.661917 -5.021346 21.454558 0.003108 0.000018 165.217495 -2.213896 171.075530 -44.329096 1.718567 -10.890113 73.284248 8.395459 1.940832 21.454551 -0.003086 0.000002 7.041447 -0.341386 -0.633387 4.073814 -0.660456 -1.278286 3.755781 -0.668301 -1.274277 18.285456 -5.836914 -15.998002 -22.302396 4.625262 -19.084594 -167.471498 -70.166035 -14.271698 0.350303 54.015957 44.127684 -27.197911 -14.510851 1.172933 7.451938 4.117860 15.123248 -173.946395 72.863816 7.654394 -47.461574 -50.224140 -20.918621 -48.190468 16.763487 -1.809998 -15.918249 19.796038 -43.162103 
-168.871506 89.890182 -86.478127 96.139755 -2.878961 -169.427596 179.825767 -6.983397 -176.820511 -20.343992 -6.495908 -0.702765 81.648477 -0.472726 -4.991894 21.454560 0.003112 0.000017 161.874855 -0.935699 176.166507 -48.586708 1.237853 -8.837354 72.781157 9.173862 8.750494 21.454562 -0.003100 -0.000005 7.010995 -0.445636 -0.846067 4.015694 -0.861927 -1.706956 3.697716 -0.872355 -1.701724 18.131229 -5.993669 -16.673670 -22.760729 5.312916 -20.127149 -168.712912 -70.407755 -12.991119 -1.843806 52.135466 40.671499 -27.238755 -14.518462 1.174133 7.905993 1.881673 14.013820 -173.544506 72.698204 8.065968 -45.008413 -50.961175 -20.120815 -45.186704 16.702925 -1.714250 -10.592110 17.598158 -39.678737 
-168.908401 89.831078 -87.550972 96.010958 -2.925458 -171.858788 -179.516919 -6.090393 -178.860688 -20.109253 -6.332971 -1.076866 81.938419 -0.130205 -4.696981 21.454558 0.003109 0.000018 159.497116 1.049194 -179.312943 -51.311311 1.304889 -6.778842 73.415217 7.861386 9.558099 21.454551 -0.003091 0.000003 7.053967 -0.580397 -1.123558 4.106389 -1.120943 -2.266885 3.788486 -1.134747 -2.260081 17.894312 -5.875773 -17.304931 -23.225355 6.139477 -21.186642 -169.963698 -70.912110 -11.702172 -3.951322 50.148273 37.823894 -27.137533 -14.740151 1.186535 8.031821 0.037282 12.315703 -172.791055 72.112994 8.836492 -41.938072 -51.501344 -19.107615 -42.504189 17.524858 -1.690822 -2.715919 12.759505 -34.594239 
-168.819595 89.738708 -88.527138 96.110242 -2.865650 -174.158404 -178.837917 -5.487000 179.482905 -20.202013 -6.460979 -1.504981 82.480401 0.271958 -4.355930 21.454555 0.003107 0.000018 158.130518 2.782196 -176.007281 -51.744154 1.151989 -3.915166 74.243624 5.691752 9.578206 21.454538 -0.003090 0.000004 7.153714 -0.662393 -1.283192 4.309299 -1.276964 -2.590075 3.991465 -1.292714 -2.582326 17.872892 -6.121870 -18.006672 -23.403635 7.145872 -22.374831 -171.481817 -71.438738 -10.140167 -6.299460 48.093831 35.262808 -26.932204 -15.058289 1.203283 8.242258 -0.788641 10.108592 -169.971361 71.780104 11.735596 -39.499827 -52.225703 -15.377698 -39.306212 17.075557 -1.574955 4.487124 8.850923 -29.003647 
-168.630997 89.776268 -89.361389 96.362303 -2.381891 -176.593790 -177.843687 -5.357803 177.516862 -20.012774 -6.516909 -1.843578 82.928298 0.584639 -4.088412 21.454553 0.003110 0.000017 157.940898 3.919403 -174.596847 -49.330491 2.074100 -0.846185 73.672353 3.057198 8.220487 21.454555 -0.003092 -0.000001 7.267046 -0.646078 -1.287849 4.535611 -1.241585 -2.599953 4.217793 -1.257395 -2.592417 18.359781 -5.570878 -18.492160 -23.814221 7.061885 -22.880978 -173.066817 -71.786572 -8.510844 -8.660828 45.501481 33.136372 -26.786696 -15.083059 1.202372 7.875258 -1.048170 7.497308 -168.353563 71.301212 13.400812 -36.240430 -53.023349 -11.808884 -35.445366 16.601086 -1.448952 10.108773 7.655489 -21.377246 
-168.365494 89.800507 -90.008614 96.445673 -1.834599 -178.988905 -177.080085 -5.213593 175.569507 -19.977711 -6.269572 -2.191704 83.424081 0.844646 -4.068067 21.454553 0.003109 0.000017 158.149588 4.771302 -174.425573 -44.581925 2.687504 0.454162 72.064902 1.910022 7.268011 21.454558 -0.003090 -0.000001 7.327784 -0.589147 -1.289170 4.655738 -1.126341 -2.600917 4.337927 -1.142159 -2.594077 18.808610 -5.320341 -18.687201 -24.018896 6.707748 -22.949492 -173.697707 -71.936884 -7.862997 -10.336950 43.278455 30.053727 -27.076965 -14.983302 1.201010 8.000470 -1.632053 6.788631 -168.087827 70.943980 13.675000 -32.381555 -53.426371 -9.151277 -30.725862 15.439200 -1.272114 12.890455 10.901679 -12.712386 
-168.084702 89.984322 -90.510323 96.251094 -1.017908 178.786608 -176.431668 -5.276902 174.087930 -19.483255 -5.935515 -2.769509 83.587206 1.218216 -4.207822 21.454555 0.003108 0.000017 159.158038 5.140198 -175.208627 -37.044289 3.513810 2.002405 69.518943 0.844229 7.022832 21.454555 -0.003090 -0.000001 7.330442 -0.448321 -1.299109 4.657800 -0.844382 -2.615120 4.340041 -0.860290 -2.609982 19.093895 -5.628323 -18.831252 -24.170906 6.583590 -23.060471 -174.258111 -72.085338 -7.287825 -11.353009 42.216470 26.790271 -27.141953 -15.548483 1.238186 8.372215 -2.198095 7.257126 -167.554622 70.627810 14.225216 -28.032474 -53.377751 -7.765345 -26.767103 14.387850 -1.131862 14.043512 12.725558 -6.365291 
-167.787903 90.251442 -90.920464 95.749656 -0.216676 176.792398 -175.972871 -5.268798 173.529862 -18.586181 -5.633917 -3.784010 83.451914 1.855437 -4.500292 21.454558 0.003109 0.000017 160.581381 5.548905 -177.416978 -27.583500 4.520535 3.437837 66.806907 -0.371783 6.171969 21.454551 -0.003094 0.000000 7.295643 -0.264479 -1.395619 4.584275 -0.473897 -2.800544 4.266599 -0.490933 -2.797636 18.942891 -5.878955 -18.761153 -24.824172 6.134543 -22.857334 -172.773706 -72.351087 -8.815725 -12.231828 41.845909 24.289049 -28.070524 -15.856467 1.274346 9.396406 -4.588518 5.682640 -166.847779 70.332999 14.954906 -22.749740 -52.654577 -10.551511 -24.880192 13.961459 -1.074016 16.255147 13.084809 -0.378125 
-167.404007 90.487122 -91.195000 95.078515 0.324624 175.117991 -175.621758 -5.174194 173.446056 -17.536108 -5.485535 -4.856337 83.185359 2.528989 -4.803203 21.454557 0.003108 0.000017 162.068983 6.121993 -178.332127 -18.029722 4.157482 4.576425 64.786284 -1.043343 6.356826 21.454551 -0.003092 -0.000001 7.237945 -0.098437 -1.536487 4.464889 -0.138014 -3.075586 4.147284 -0.156715 -3.074701 18.369616 -5.774269 -18.631581 -26.078205 5.353062 -22.497432 -171.762387 -72.744718 -9.856765 -12.450040 42.069703 22.989959 -29.413793 -16.269780 1.325814 10.419978 -7.920574 1.850125 -165.141079 69.891700 16.717803 -16.692764 -51.584748 -14.734449 -25.646100 14.165090 -1.099116 17.359334 12.372041 0.228287 
-166.913406 90.644203 -91.279343 94.376112 0.619385 173.485002 -175.156089 -5.104705 172.842213 -16.394028 -5.440517 -5.557680 82.869135 2.953125 -5.056643 21.454562 0.003106 0.000018 162.510677 6.664597 -178.670276 -10.935382 2.880398 5.755980 63.819204 -1.185773 8.034618 21.454551 -0.003095 0.000001 7.179840 0.042541 -1.664617 4.344700 0.146992 -3.326473 4.027211 0.126773 -3.327300 17.375679 -5.813375 -18.488222 -27.079304 4.595958 -22.103732 -172.255294 -73.055177 -9.351968 -11.983514 42.654135 22.849232 -30.791026 -16.782868 1.385757 11.001515 -10.282030 -2.752126 -162.759364 69.508219 19.179414 -10.745654 -50.241581 -19.521282 -26.872514 14.402275 -1.134568 16.026390 10.668083 -2.998993 
